<?xml version="1.0" standalone="no"?>
<!DOCTYPE svg PUBLIC "-//W3C//DTD SVG 20010904//EN"
 "http://www.w3.org/TR/2001/REC-SVG-20010904/DTD/svg10.dtd">
<svg version="1.0" xmlns="http://www.w3.org/2000/svg"
 width="595.000000pt" height="595.000000pt" viewBox="0 0 595.000000 595.000000"
 preserveAspectRatio="xMidYMid meet">
<metadata>
Created by potrace 1.11, written by Peter Selinger 2001-2013
</metadata>
<g transform="translate(0.000000,595.000000) scale(0.100000,-0.100000)"
fill="#000000" stroke="none">
<path d="M2460 5480 c0 -13 -7 -20 -20 -20 -19 0 -20 -7 -20 -90 0 -83 1 -90
20 -90 11 0 20 -7 20 -15 0 -13 52 -15 410 -15 403 0 410 0 410 -20 0 -18 7
-20 70 -20 63 0 70 -2 70 -20 0 -18 7 -20 55 -20 42 0 55 -3 55 -15 0 -18 11
-19 29 -2 11 10 13 10 7 0 -7 -13 15 -18 57 -13 9 1 17 -2 16 -7 -4 -22 3 -33
21 -33 11 0 20 -7 20 -15 0 -14 24 -20 59 -15 9 1 12 -4 7 -15 -4 -12 0 -18
14 -22 11 -3 20 -12 20 -19 0 -8 9 -14 20 -14 13 0 20 -7 20 -20 0 -11 7 -20
15 -20 8 0 15 -9 15 -20 0 -13 7 -20 19 -20 10 0 21 -7 25 -15 3 -8 12 -15 21
-15 8 0 15 -9 15 -20 0 -11 7 -20 15 -20 10 0 15 -10 15 -29 0 -20 6 -30 20
-34 12 -3 20 -14 20 -26 0 -12 6 -21 15 -21 10 0 15 -11 15 -35 0 -28 4 -35
20 -35 16 0 20 -7 20 -35 0 -28 4 -35 20 -35 18 0 20 -7 20 -55 0 -42 3 -55
15 -55 12 0 15 -14 15 -70 0 -63 2 -70 20 -70 20 0 20 -7 20 -285 0 -278 0
-285 -20 -285 -18 0 -20 -7 -20 -75 0 -60 -3 -75 -15 -75 -12 0 -15 -14 -15
-66 0 -57 -3 -67 -20 -71 -15 -4 -20 -14 -20 -39 0 -27 -4 -34 -20 -34 -16 0
-20 -7 -20 -35 0 -24 -5 -35 -15 -35 -10 0 -15 -11 -15 -35 0 -28 -4 -35 -20
-35 -13 0 -20 -7 -20 -20 0 -11 -7 -20 -15 -20 -13 0 -21 -25 -16 -52 0 -5 -8
-8 -19 -8 -15 0 -20 -7 -20 -25 0 -20 -5 -25 -26 -25 -19 0 -25 -4 -21 -14 4
-10 1 -13 -9 -9 -10 4 -14 -2 -14 -21 0 -19 -5 -26 -20 -26 -13 0 -20 -7 -20
-20 0 -16 -7 -20 -35 -20 -24 0 -35 -5 -35 -15 0 -8 -7 -15 -15 -15 -8 0 -15
-9 -15 -20 0 -17 -7 -20 -40 -20 -29 0 -40 -4 -40 -15 0 -10 -11 -15 -35 -15
-28 0 -35 -4 -35 -20 0 -11 -6 -20 -14 -20 -8 0 -16 -7 -20 -15 -4 -11 -23
-15 -77 -15 -66 0 -71 -1 -66 -20 5 -19 0 -20 -69 -20 -67 0 -74 -2 -74 -20 0
-20 -7 -20 -375 -20 -327 0 -375 -2 -375 -15 0 -8 -9 -15 -20 -15 -20 0 -20
-7 -20 -860 0 -836 1 -860 19 -860 10 0 21 -9 24 -20 5 -18 14 -20 95 -20 85
0 90 1 85 20 -4 14 0 20 11 20 15 0 21 22 17 58 -1 6 7 12 19 12 20 0 20 2 20
715 l0 715 304 0 c167 0 311 3 320 6 9 3 16 12 16 20 0 10 15 14 55 14 42 0
55 3 55 15 0 12 13 15 55 15 48 0 55 2 55 20 0 16 7 20 35 20 28 0 35 4 35 20
0 16 7 20 35 20 24 0 35 5 35 15 0 10 11 15 35 15 29 0 35 4 35 21 0 16 5 20
20 16 15 -4 20 0 20 14 0 15 7 19 35 19 28 0 35 4 35 20 0 13 7 20 20 20 13 0
20 7 20 20 0 11 7 20 15 20 8 0 15 7 15 15 0 9 10 15 26 15 21 0 24 4 19 20
-5 14 -2 20 9 20 9 0 16 7 16 15 0 8 9 15 20 15 13 0 20 7 20 20 0 13 7 20 20
20 11 0 20 7 20 15 0 8 7 15 15 15 8 0 15 9 15 20 0 13 7 20 20 20 13 0 20 7
20 20 0 11 5 20 11 20 8 0 7 6 -2 17 -12 15 -12 16 2 11 13 -5 18 2 23 32 5
29 10 38 21 34 11 -5 15 1 15 20 0 16 6 26 15 26 10 0 15 11 15 35 0 28 4 35
20 35 18 0 20 7 20 55 0 48 2 55 20 55 18 0 20 7 20 55 0 41 4 55 15 55 11 0
15 17 17 73 2 42 7 71 13 69 17 -5 23 38 24 181 1 77 5 137 10 137 5 0 12 -8
14 -17 3 -10 5 32 5 92 0 61 -2 102 -5 93 -2 -10 -9 -18 -14 -18 -7 0 -16 268
-10 303 1 5 -8 11 -19 14 -18 5 -20 13 -20 74 0 55 -3 69 -15 69 -12 0 -15 13
-15 55 0 48 -2 55 -20 55 -16 0 -20 7 -20 35 0 28 -4 35 -20 35 -16 0 -20 7
-20 35 0 24 -5 35 -15 35 -10 0 -15 11 -15 35 0 28 -4 35 -20 35 -15 0 -20 7
-20 24 0 14 -5 28 -12 32 -7 4 -8 3 -4 -4 4 -7 2 -12 -3 -12 -14 0 -14 13 1
28 9 9 9 12 0 12 -7 0 -12 7 -12 15 0 8 -9 15 -20 15 -13 0 -20 7 -20 20 0 11
-7 20 -15 20 -9 0 -15 9 -15 25 0 19 -5 25 -21 25 -11 0 -17 5 -14 10 4 6 -5
10 -19 10 -16 0 -26 6 -26 15 0 8 -7 15 -15 15 -8 0 -15 9 -15 20 0 13 -7 20
-20 20 -13 0 -20 7 -20 20 0 11 -7 20 -15 20 -8 0 -15 7 -15 15 0 14 -22 20
-64 15 -14 -1 -18 3 -13 19 4 16 0 21 -14 21 -10 0 -19 7 -19 15 0 10 -11 15
-35 15 -28 0 -35 4 -35 20 0 18 -7 20 -55 20 -48 0 -55 2 -55 20 0 16 -7 20
-35 20 -24 0 -35 5 -35 15 0 12 -14 15 -62 16 -35 1 -69 1 -75 0 -7 -1 -13 7
-13 19 0 20 -3 20 -480 20 -473 0 -480 0 -480 -20z m880 -2930 c0 -5 -5 -10
-11 -10 -5 0 -7 5 -4 10 3 6 8 10 11 10 2 0 4 -4 4 -10z"/>
<path d="M3220 5230 c0 -5 5 -10 10 -10 6 0 10 5 10 10 0 6 -4 10 -10 10 -5 0
-10 -4 -10 -10z"/>
<path d="M1808 4831 c-11 -14 -13 -22 -5 -30 6 -6 7 -14 3 -18 -4 -4 -11 -1
-16 7 -6 9 -10 -810 -10 -2147 0 -1916 2 -2163 15 -2163 8 0 15 -9 15 -19 0
-23 19 -27 113 -23 60 3 67 6 67 24 0 15 5 19 20 15 15 -4 20 0 20 13 0 10 3
26 6 35 5 13 8 14 15 3 5 -7 9 906 9 2030 l0 2042 465 0 c407 0 465 -2 465
-15 0 -12 16 -15 78 -17 42 0 83 -1 90 -1 6 1 12 -8 12 -18 0 -16 8 -19 55
-19 48 0 55 -2 55 -20 0 -13 7 -20 19 -20 10 0 21 -7 25 -15 3 -9 18 -15 36
-15 25 0 30 -4 30 -25 0 -14 6 -25 13 -25 8 0 7 -4 -3 -10 -13 -8 -12 -10 5
-11 11 -1 28 -2 38 -1 9 1 17 -1 17 -5 0 -3 -8 -12 -17 -19 -17 -13 -17 -14 0
-8 13 5 17 1 17 -20 0 -19 5 -26 20 -26 14 0 20 -7 20 -21 0 -13 4 -18 12 -13
8 5 9 2 5 -9 -3 -10 -2 -17 3 -17 6 0 10 -29 10 -64 0 -75 6 -97 26 -89 11 4
14 -11 14 -86 0 -84 -1 -91 -20 -91 -18 0 -20 -7 -20 -70 0 -56 -3 -70 -15
-70 -10 0 -15 -11 -15 -35 0 -28 -4 -35 -20 -35 -13 0 -20 -7 -20 -20 0 -13
-7 -20 -20 -20 -13 0 -20 -7 -20 -20 0 -11 -7 -20 -15 -20 -8 0 -15 -7 -15
-15 0 -8 -9 -15 -20 -15 -13 0 -20 -7 -20 -20 0 -13 -7 -20 -20 -20 -11 0 -19
-6 -18 -12 2 -8 -10 -14 -29 -16 -25 -2 -33 -8 -33 -23 0 -16 -7 -19 -55 -19
-48 0 -55 -2 -55 -20 0 -18 -7 -20 -75 -20 -60 0 -75 -3 -75 -15 0 -13 -22
-15 -140 -15 l-140 0 -1 188 c-1 103 0 199 1 215 1 21 -3 27 -19 27 -12 0 -21
6 -21 15 0 8 -7 15 -15 15 -8 0 -15 9 -15 20 0 19 -7 20 -90 20 -83 0 -90 -1
-90 -20 0 -13 -7 -20 -20 -20 -20 0 -20 -7 -20 -340 0 -333 0 -340 20 -340 11
0 20 -7 20 -15 0 -13 42 -15 320 -15 278 0 320 2 320 15 0 12 15 15 75 15 68
0 75 2 75 20 0 17 7 20 50 20 28 0 49 3 49 8 -4 25 4 32 36 32 24 0 35 5 35
15 0 8 9 15 20 15 13 0 20 7 20 20 0 16 7 20 33 20 24 0 28 3 17 10 -8 5 -12
10 -7 11 4 1 12 3 17 4 6 1 19 3 30 4 13 1 20 8 20 21 0 11 7 20 15 20 8 0 15
7 15 15 0 8 9 15 20 15 20 0 25 17 21 63 -1 9 4 17 13 17 10 0 13 -6 10 -15
-4 -8 -1 -15 5 -15 6 0 10 3 10 8 -4 26 3 52 15 52 8 0 17 15 20 35 4 21 13
35 21 35 9 0 15 10 15 24 0 13 6 27 13 29 10 4 10 6 0 6 -7 1 -13 6 -13 11 0
6 6 9 13 8 8 -2 13 14 15 50 3 44 6 52 23 52 18 0 19 9 19 215 0 208 -1 215
-20 215 -18 0 -20 7 -20 55 0 42 -3 55 -15 55 -10 0 -15 11 -15 35 0 28 -4 35
-20 35 -16 0 -20 7 -20 35 0 24 -5 35 -15 35 -9 0 -15 9 -15 24 0 19 -4 23
-20 19 -17 -5 -20 0 -20 31 0 20 -5 36 -11 36 -5 0 -7 -4 -4 -10 3 -5 2 -10
-3 -10 -6 0 -12 7 -16 15 -3 8 -11 14 -18 13 -7 -2 -12 5 -12 15 1 12 -5 17
-22 17 -15 0 -24 6 -24 15 0 8 -7 15 -15 15 -8 0 -15 9 -15 20 0 13 -7 20 -20
20 -11 0 -20 7 -20 15 0 9 -6 15 -12 14 -36 -4 -56 3 -61 21 -3 11 -9 20 -14
19 -4 -1 -27 -1 -50 0 -36 1 -43 4 -43 21 0 18 -7 20 -70 20 -58 0 -68 3 -64
15 5 13 -72 15 -658 15 -639 0 -664 -1 -680 -19z m889 -997 c-3 -3 -12 -4 -19
-1 -8 3 -5 6 6 6 11 1 17 -2 13 -5z"/>
<path d="M3354 4371 c0 -9 8 -17 18 -17 10 0 18 4 18 8 0 4 -8 12 -18 17 -14
7 -18 6 -18 -8z"/>
<path d="M2460 4295 c0 -8 -9 -15 -20 -15 -19 0 -20 -7 -20 -90 0 -83 1 -90
20 -90 13 0 20 -7 20 -20 0 -19 7 -20 102 -20 79 0 99 3 90 12 -7 7 -12 17
-12 23 0 5 5 3 10 -5 8 -12 11 -13 19 -1 5 7 6 22 4 32 -4 14 0 19 16 19 19 0
21 6 21 50 0 47 -6 56 -33 51 -5 -1 -8 7 -7 16 6 54 7 53 -105 53 -87 0 -105
-3 -105 -15z"/>
<path d="M2690 4260 c0 -5 5 -10 11 -10 5 0 7 5 4 10 -3 6 -8 10 -11 10 -2 0
-4 -4 -4 -10z"/>
<path d="M3735 3610 c-3 -5 -1 -10 4 -10 6 0 11 5 11 10 0 6 -2 10 -4 10 -3 0
-8 -4 -11 -10z"/>
<path d="M2692 1053 c-6 -2 -10 -9 -6 -14 8 -14 21 -11 21 6 0 8 -1 15 -1 14
-1 0 -7 -3 -14 -6z"/>
</g>
</svg>
